<!-- Generated from src/assets/findcall-mark.svg. Do not edit manually. -->
<svg xmlns="http://www.w3.org/2000/svg" viewBox="0 0 64 64" fill="none">
  <defs><clipPath id="favicon-bubble"><circle cx="32" cy="32" r="30"/></clipPath></defs>
  <circle cx="32" cy="32" r="30" fill="#FFFFFF"/>
  <g clip-path="url(#favicon-bubble)">
    <circle cx="28" cy="28" r="20" stroke="#0B2D5B" stroke-width="6"/>
      <path d="M42 42L57 57" stroke="#0B2D5B" stroke-linecap="round" stroke-width="7"/>
      <g transform="translate(-2 2) translate(28 28) scale(0.7) translate(-28 -28)">
        <g transform="translate(-0.5 1.5) translate(28 28) scale(1.12) translate(-28 -28)">
          <path d="M20 17C18 17 16.5 18.5 16.5 20.5C16.5 32 25.5 41 37 41C39 41 40.5 39.5 40.5 37.5L40.5 33C40.5 31.8 39.7 30.8 38.5 30.5L33.5 29C32.5 28.7 31.5 29 30.8 29.8L28.5 32.3C25 30.3 22.3 27.5 20.3 24L22.8 21.7C23.5 21 23.8 20 23.5 19L22 18C21.5 17.4 20.8 17 20 17Z" fill="#2563EB"/>
        </g>
        <path d="M34 17C39 18 42 21 43 26" stroke="#10B981" stroke-linecap="round" stroke-width="3"/>
        <path d="M36 12C43 13.5 47.5 18 49 25" stroke="#10B981" stroke-linecap="round" stroke-width="3"/>
      </g>
  </g>
</svg>
